solid OpenSCAD_Model
  facet normal 0 1 0
    outer loop
      vertex 16.3625 0.625 74.5744
      vertex 57.2705 0.625 27.9654
      vertex 16.3625 0.625 0
    endloop
  endfacet
  facet normal 0 1 0
    outer loop
      vertex 16.3625 0.625 0
      vertex 57.2705 0.625 27.9654
      vertex 57.2705 0.625 0
    endloop
  endfacet
  facet normal 0 0 -1
    outer loop
      vertex 16.3625 0.625 0
      vertex 57.2705 0.625 0
      vertex 16.3625 -0.625 0
    endloop
  endfacet
  facet normal 0 0 -1
    outer loop
      vertex 16.3625 -0.625 0
      vertex 57.2705 0.625 0
      vertex 57.2705 -0.625 0
    endloop
  endfacet
  facet normal 1 0 0
    outer loop
      vertex 57.2705 -0.625 0
      vertex 57.2705 0.625 0
      vertex 57.2705 0.625 27.9654
    endloop
  endfacet
  facet normal 1 0 0
    outer loop
      vertex 57.2705 -0.625 27.9654
      vertex 57.2705 -0.625 0
      vertex 57.2705 0.625 27.9654
    endloop
  endfacet
  facet normal -1 0 0
    outer loop
      vertex 16.3625 -0.625 74.5744
      vertex 16.3625 0.625 74.5744
      vertex 16.3625 -0.625 0
    endloop
  endfacet
  facet normal -1 0 0
    outer loop
      vertex 16.3625 -0.625 0
      vertex 16.3625 0.625 74.5744
      vertex 16.3625 0.625 0
    endloop
  endfacet
  facet normal 0.751576 0 0.659647
    outer loop
      vertex 16.3625 -0.625 74.5744
      vertex 57.2705 -0.625 27.9654
      vertex 57.2705 0.625 27.9654
    endloop
  endfacet
  facet normal 0.751576 0 0.659647
    outer loop
      vertex 16.3625 0.625 74.5744
      vertex 16.3625 -0.625 74.5744
      vertex 57.2705 0.625 27.9654
    endloop
  endfacet
  facet normal 0 -1 0
    outer loop
      vertex 16.3625 -0.625 0
      vertex 57.2705 -0.625 0
      vertex 57.2705 -0.625 27.9654
    endloop
  endfacet
  facet normal 0 -1 0
    outer loop
      vertex 16.3625 -0.625 74.5744
      vertex 16.3625 -0.625 0
      vertex 57.2705 -0.625 27.9654
    endloop
  endfacet
endsolid OpenSCAD_Model
