solid OpenSCAD_Model
  facet normal 0 1 0
    outer loop
      vertex 13.9495 0.625 52.6288
      vertex 48.825 0.625 19.7358
      vertex 13.9495 0.625 0
    endloop
  endfacet
  facet normal 0 1 0
    outer loop
      vertex 13.9495 0.625 0
      vertex 48.825 0.625 19.7358
      vertex 48.825 0.625 0
    endloop
  endfacet
  facet normal 0 0 -1
    outer loop
      vertex 13.9495 0.625 0
      vertex 48.825 0.625 0
      vertex 13.9495 -0.625 0
    endloop
  endfacet
  facet normal 0 0 -1
    outer loop
      vertex 13.9495 -0.625 0
      vertex 48.825 0.625 0
      vertex 48.825 -0.625 0
    endloop
  endfacet
  facet normal 1 0 0
    outer loop
      vertex 48.825 -0.625 0
      vertex 48.825 0.625 0
      vertex 48.825 0.625 19.7358
    endloop
  endfacet
  facet normal 1 0 0
    outer loop
      vertex 48.825 -0.625 19.7358
      vertex 48.825 -0.625 0
      vertex 48.825 0.625 19.7358
    endloop
  endfacet
  facet normal -1 0 0
    outer loop
      vertex 13.9495 -0.625 52.6288
      vertex 13.9495 0.625 52.6288
      vertex 13.9495 -0.625 0
    endloop
  endfacet
  facet normal -1 0 0
    outer loop
      vertex 13.9495 -0.625 0
      vertex 13.9495 0.625 52.6288
      vertex 13.9495 0.625 0
    endloop
  endfacet
  facet normal 0.686128 0 0.727481
    outer loop
      vertex 13.9495 -0.625 52.6288
      vertex 48.825 -0.625 19.7358
      vertex 48.825 0.625 19.7358
    endloop
  endfacet
  facet normal 0.686128 0 0.727481
    outer loop
      vertex 13.9495 0.625 52.6288
      vertex 13.9495 -0.625 52.6288
      vertex 48.825 0.625 19.7358
    endloop
  endfacet
  facet normal 0 -1 0
    outer loop
      vertex 13.9495 -0.625 0
      vertex 48.825 -0.625 0
      vertex 48.825 -0.625 19.7358
    endloop
  endfacet
  facet normal 0 -1 0
    outer loop
      vertex 13.9495 -0.625 52.6288
      vertex 13.9495 -0.625 0
      vertex 48.825 -0.625 19.7358
    endloop
  endfacet
endsolid OpenSCAD_Model
